<mxfile host="app.diagrams.net" modified="2022-04-26T08:47:26.803Z" agent="5.0 (Macintosh; Intel Mac OS X 10_15_7) AppleWebKit/605.1.15 (KHTML, like Gecko) Version/15.4 Safari/605.1.15" etag="QxiatX2lAnx7Iav5sPk8" version="17.4.6" type="github">
  <diagram id="HJIuwdt6XQb_YKnEWMR1" name="第 1 页">
    <mxGraphModel dx="612" dy="443" grid="1" gridSize="10" guides="1" tooltips="1" connect="1" arrows="1" fold="1" page="1" pageScale="1" pageWidth="827" pageHeight="1169" math="0" shadow="0">
      <root>
        <mxCell id="0" />
        <mxCell id="1" parent="0" />
        <mxCell id="Zhk3huauEiayyAz25vFR-2" style="edgeStyle=orthogonalEdgeStyle;rounded=0;orthogonalLoop=1;jettySize=auto;html=1;exitX=1;exitY=0.5;exitDx=0;exitDy=0;entryX=0;entryY=0.5;entryDx=0;entryDy=0;" edge="1" parent="1" source="Zhk3huauEiayyAz25vFR-3" target="Zhk3huauEiayyAz25vFR-11">
          <mxGeometry relative="1" as="geometry" />
        </mxCell>
        <mxCell id="Zhk3huauEiayyAz25vFR-3" value="0" style="rounded=0;whiteSpace=wrap;html=1;" vertex="1" parent="1">
          <mxGeometry x="280" y="170" width="130" height="30" as="geometry" />
        </mxCell>
        <mxCell id="Zhk3huauEiayyAz25vFR-4" style="edgeStyle=orthogonalEdgeStyle;rounded=0;orthogonalLoop=1;jettySize=auto;html=1;exitX=1;exitY=0.5;exitDx=0;exitDy=0;entryX=0;entryY=0.5;entryDx=0;entryDy=0;" edge="1" parent="1" source="Zhk3huauEiayyAz25vFR-5" target="Zhk3huauEiayyAz25vFR-15">
          <mxGeometry relative="1" as="geometry" />
        </mxCell>
        <mxCell id="Zhk3huauEiayyAz25vFR-5" value="1" style="rounded=0;whiteSpace=wrap;html=1;" vertex="1" parent="1">
          <mxGeometry x="280" y="200" width="130" height="30" as="geometry" />
        </mxCell>
        <mxCell id="Zhk3huauEiayyAz25vFR-6" value="" style="rounded=0;whiteSpace=wrap;html=1;" vertex="1" parent="1">
          <mxGeometry x="280" y="230" width="130" height="30" as="geometry" />
        </mxCell>
        <mxCell id="Zhk3huauEiayyAz25vFR-7" value="" style="rounded=0;whiteSpace=wrap;html=1;" vertex="1" parent="1">
          <mxGeometry x="280" y="260" width="130" height="30" as="geometry" />
        </mxCell>
        <mxCell id="Zhk3huauEiayyAz25vFR-8" value="" style="rounded=0;whiteSpace=wrap;html=1;" vertex="1" parent="1">
          <mxGeometry x="280" y="290" width="130" height="30" as="geometry" />
        </mxCell>
        <mxCell id="Zhk3huauEiayyAz25vFR-10" value="notelist" style="text;whiteSpace=wrap;html=1;" vertex="1" parent="1">
          <mxGeometry x="210" y="170" width="60" height="30" as="geometry" />
        </mxCell>
        <mxCell id="Zhk3huauEiayyAz25vFR-11" value="print_note_content()" style="rounded=0;whiteSpace=wrap;html=1;" vertex="1" parent="1">
          <mxGeometry x="460" y="170" width="130" height="30" as="geometry" />
        </mxCell>
        <mxCell id="Zhk3huauEiayyAz25vFR-12" style="edgeStyle=orthogonalEdgeStyle;rounded=0;orthogonalLoop=1;jettySize=auto;html=1;exitX=1;exitY=0.5;exitDx=0;exitDy=0;" edge="1" parent="1" source="Zhk3huauEiayyAz25vFR-13" target="Zhk3huauEiayyAz25vFR-14">
          <mxGeometry relative="1" as="geometry" />
        </mxCell>
        <mxCell id="Zhk3huauEiayyAz25vFR-13" value="" style="rounded=0;whiteSpace=wrap;html=1;" vertex="1" parent="1">
          <mxGeometry x="460" y="200" width="130" height="30" as="geometry" />
        </mxCell>
        <mxCell id="Zhk3huauEiayyAz25vFR-14" value="malloc(0x10)" style="rounded=0;whiteSpace=wrap;html=1;" vertex="1" parent="1">
          <mxGeometry x="630" y="200" width="130" height="30" as="geometry" />
        </mxCell>
        <mxCell id="Zhk3huauEiayyAz25vFR-15" value="print_note_content()" style="rounded=0;whiteSpace=wrap;html=1;" vertex="1" parent="1">
          <mxGeometry x="460" y="250" width="130" height="30" as="geometry" />
        </mxCell>
        <mxCell id="Zhk3huauEiayyAz25vFR-16" style="edgeStyle=orthogonalEdgeStyle;rounded=0;orthogonalLoop=1;jettySize=auto;html=1;exitX=1;exitY=0.5;exitDx=0;exitDy=0;" edge="1" parent="1" source="Zhk3huauEiayyAz25vFR-17" target="Zhk3huauEiayyAz25vFR-18">
          <mxGeometry relative="1" as="geometry" />
        </mxCell>
        <mxCell id="Zhk3huauEiayyAz25vFR-17" value="" style="rounded=0;whiteSpace=wrap;html=1;" vertex="1" parent="1">
          <mxGeometry x="460" y="280" width="130" height="30" as="geometry" />
        </mxCell>
        <mxCell id="Zhk3huauEiayyAz25vFR-18" value="malloc(0x10)" style="rounded=0;whiteSpace=wrap;html=1;" vertex="1" parent="1">
          <mxGeometry x="630" y="280" width="130" height="30" as="geometry" />
        </mxCell>
        <mxCell id="Zhk3huauEiayyAz25vFR-19" style="edgeStyle=orthogonalEdgeStyle;rounded=0;orthogonalLoop=1;jettySize=auto;html=1;exitX=1;exitY=0.5;exitDx=0;exitDy=0;entryX=0;entryY=0.5;entryDx=0;entryDy=0;" edge="1" parent="1" source="Zhk3huauEiayyAz25vFR-20" target="Zhk3huauEiayyAz25vFR-22">
          <mxGeometry relative="1" as="geometry" />
        </mxCell>
        <mxCell id="Zhk3huauEiayyAz25vFR-20" value="0x10" style="rounded=0;whiteSpace=wrap;html=1;" vertex="1" parent="1">
          <mxGeometry x="280" y="420" width="130" height="30" as="geometry" />
        </mxCell>
        <mxCell id="Zhk3huauEiayyAz25vFR-21" style="edgeStyle=orthogonalEdgeStyle;rounded=0;orthogonalLoop=1;jettySize=auto;html=1;exitX=1;exitY=0.5;exitDx=0;exitDy=0;entryX=0;entryY=0.5;entryDx=0;entryDy=0;" edge="1" parent="1" source="Zhk3huauEiayyAz25vFR-22" target="Zhk3huauEiayyAz25vFR-23">
          <mxGeometry relative="1" as="geometry" />
        </mxCell>
        <mxCell id="Zhk3huauEiayyAz25vFR-22" value="1 malloc(size)" style="rounded=0;whiteSpace=wrap;html=1;" vertex="1" parent="1">
          <mxGeometry x="470" y="420" width="130" height="30" as="geometry" />
        </mxCell>
        <mxCell id="Zhk3huauEiayyAz25vFR-23" value="0 malloc(size)" style="rounded=0;whiteSpace=wrap;html=1;" vertex="1" parent="1">
          <mxGeometry x="640" y="420" width="130" height="30" as="geometry" />
        </mxCell>
        <mxCell id="Zhk3huauEiayyAz25vFR-24" style="edgeStyle=orthogonalEdgeStyle;rounded=0;orthogonalLoop=1;jettySize=auto;html=1;exitX=1;exitY=0.5;exitDx=0;exitDy=0;entryX=0;entryY=0.5;entryDx=0;entryDy=0;" edge="1" parent="1" source="Zhk3huauEiayyAz25vFR-25">
          <mxGeometry relative="1" as="geometry">
            <mxPoint x="470" y="505" as="targetPoint" />
          </mxGeometry>
        </mxCell>
        <mxCell id="Zhk3huauEiayyAz25vFR-25" value="0x8" style="rounded=0;whiteSpace=wrap;html=1;" vertex="1" parent="1">
          <mxGeometry x="280" y="490" width="130" height="30" as="geometry" />
        </mxCell>
        <mxCell id="Zhk3huauEiayyAz25vFR-26" style="edgeStyle=orthogonalEdgeStyle;rounded=0;orthogonalLoop=1;jettySize=auto;html=1;exitX=1;exitY=0.5;exitDx=0;exitDy=0;entryX=0;entryY=0.5;entryDx=0;entryDy=0;" edge="1" parent="1">
          <mxGeometry relative="1" as="geometry">
            <mxPoint x="600" y="505" as="sourcePoint" />
            <mxPoint x="640" y="505" as="targetPoint" />
          </mxGeometry>
        </mxCell>
        <mxCell id="Zhk3huauEiayyAz25vFR-27" value="1 print_note_content()" style="rounded=0;whiteSpace=wrap;html=1;" vertex="1" parent="1">
          <mxGeometry x="470" y="490" width="130" height="30" as="geometry" />
        </mxCell>
        <mxCell id="Zhk3huauEiayyAz25vFR-28" value="" style="rounded=0;whiteSpace=wrap;html=1;" vertex="1" parent="1">
          <mxGeometry x="470" y="520" width="130" height="30" as="geometry" />
        </mxCell>
        <mxCell id="Zhk3huauEiayyAz25vFR-29" value="&amp;nbsp;0 print_note_content()" style="rounded=0;whiteSpace=wrap;html=1;" vertex="1" parent="1">
          <mxGeometry x="640" y="490" width="130" height="30" as="geometry" />
        </mxCell>
        <mxCell id="Zhk3huauEiayyAz25vFR-30" value="" style="rounded=0;whiteSpace=wrap;html=1;" vertex="1" parent="1">
          <mxGeometry x="640" y="520" width="130" height="30" as="geometry" />
        </mxCell>
        <mxCell id="Zhk3huauEiayyAz25vFR-31" value="free" style="text;whiteSpace=wrap;html=1;" vertex="1" parent="1">
          <mxGeometry x="220" y="450" width="60" height="30" as="geometry" />
        </mxCell>
      </root>
    </mxGraphModel>
  </diagram>
</mxfile>
